<svg width="231" height="63" viewBox="0 0 231 63" fill="none" xmlns="http://www.w3.org/2000/svg">
<path fill-rule="evenodd" clip-rule="evenodd" d="M110.209 62.6277V42.73H119.646C122.579 42.73 125.002 42.7295 126.915 43.4948C128.828 44.2601 130.363 45.6632 131.001 47.3214C131.766 48.9796 131.763 50.8919 131.763 52.6776C131.763 54.4633 131.766 56.3781 131.001 58.0363C130.235 59.6945 128.828 61.0976 126.915 61.8629C125.002 62.6282 122.453 62.6277 120.667 62.6277H116.203C114.162 62.6277 112.25 62.6277 110.209 62.6277ZM136.357 42.73H142.351V62.6277H136.357V42.73ZM88.5247 62.6277V42.73H104.977V47.1943H94.5187V50.3831H104.977V54.8475H94.5187V58.0363H104.977V62.5007H88.5247V62.6277ZM83.2931 62.6277H77.2991V49.3617L70.6673 55.9935L64.0356 49.3617V62.6277H58.0366V42.73H64.0356L70.6673 49.3617L77.2991 42.73H83.2931V62.6277ZM116.203 47.1943V58.1634H120.283C121.559 58.1634 122.709 58.1624 123.602 57.7797C124.495 57.3971 125.132 56.7593 125.515 55.8664C125.898 54.9735 125.899 53.8256 125.899 52.6776C125.899 51.5296 125.898 50.3817 125.515 49.4888C125.132 48.5959 124.495 47.9581 123.602 47.5755C122.709 47.1928 121.559 47.1943 120.283 47.1943C119.008 47.1943 117.606 47.1943 116.203 47.1943Z" fill="white"/>
<path d="M155.235 54.5909L157.787 48.0862L160.338 54.5909H155.235ZM163.526 62.6277H169.52L160.846 42.73H154.852L146.177 62.6277H152.171L153.701 58.8011H162.121L163.526 62.6277Z" fill="white"/>
<path fill-rule="evenodd" clip-rule="evenodd" d="M110.209 31.8881V11.9879H119.646C122.579 11.9879 125.002 11.9899 126.915 12.7552C128.828 13.5205 130.36 14.9236 131.125 16.5818C131.891 18.24 131.893 20.1523 131.893 21.938C131.893 23.8513 131.891 25.636 131.125 27.2942C130.36 28.9524 128.956 30.3555 126.915 31.1208C125.002 31.8861 122.453 31.8881 120.667 31.8881H116.203C114.162 31.8881 112.25 31.8881 110.209 31.8881ZM209.446 31.8881V11.9879H218.883C221.816 11.9879 224.239 11.9899 226.152 12.7552C228.065 13.5205 229.595 14.9236 230.233 16.5818C230.871 18.24 231 20.1523 231 21.938C231 23.8513 230.998 25.636 230.233 27.2942C229.467 28.9524 228.065 30.3555 226.152 31.1208C224.239 31.8861 221.69 31.8881 219.904 31.8881H215.44C213.399 31.8881 211.359 31.8881 209.446 31.8881ZM184.443 31.8881V11.9879H190.437H195.156C196.942 11.9879 198.983 11.9884 200.642 12.4986C202.3 13.0088 203.706 14.0302 204.344 16.0711C204.981 18.1119 204.981 20.9166 204.344 22.8299C203.833 24.233 202.938 25.2544 201.917 25.7646L205.36 31.7586H198.982L196.177 26.786C195.795 26.786 195.414 26.786 195.031 26.786H190.567V31.7586C188.399 31.8861 186.484 31.8881 184.443 31.8881ZM161.1 31.1208C159.314 30.3555 157.911 28.8254 157.274 27.1672C156.636 25.509 156.636 23.7242 156.636 21.8109C156.636 20.0252 156.636 18.1104 157.274 16.4522C157.911 14.7941 159.314 13.2634 161.1 12.6257C162.886 11.9879 165.183 11.8608 166.586 11.8608H170.283C171.814 11.8608 173.983 11.8603 175.769 12.6257C177.555 13.391 178.958 14.7941 179.595 16.4522C180.233 18.1104 180.233 19.8977 180.233 21.8109C180.233 23.5967 180.233 25.509 179.595 27.1672C178.958 28.8254 177.555 30.356 175.769 30.9937C173.983 31.6315 171.689 31.7586 169.521 31.7586H167.353C165.185 31.8861 162.886 31.8861 161.1 31.1208ZM136.357 31.8881V25.3809V20.9166V16.4522V11.9879H152.809V16.4522H142.351V20.9166H152.809V25.3809H142.351V31.8881H136.357ZM88.5247 31.8881V11.9879H104.977V16.4522H94.5187V19.6411H104.977V24.1054H94.5187V27.2942H104.977V31.7586L88.5247 31.8881ZM83.2931 31.8881H77.2991V18.4951L70.6673 25.1268L64.0356 18.4951V31.8881H58.0366V11.9879H64.0356L70.6673 18.6221L77.2991 11.9879H83.2931V31.8881ZM163.143 18.4951C162.76 19.3879 162.759 20.6625 162.759 21.938C162.759 23.2135 162.76 24.3605 163.143 25.3809C163.526 26.2738 164.163 27.0391 165.056 27.2942C165.949 27.6769 167.224 27.6779 168.499 27.6779C169.775 27.6779 170.922 27.6769 171.942 27.2942C172.835 26.9116 173.6 26.2738 173.855 25.3809C174.111 24.4881 174.239 23.2135 174.239 21.938C174.239 20.6625 174.238 19.5155 173.855 18.4951C173.473 17.6022 172.838 16.8369 171.818 16.5818C170.797 16.1991 169.521 16.1981 168.245 16.1981C166.97 16.1981 165.82 16.1991 164.927 16.5818C164.034 16.9644 163.526 17.6022 163.143 18.4951ZM116.203 16.4522V27.4238H120.283C121.559 27.4238 122.709 27.4228 123.602 27.0401C124.495 26.6575 125.132 26.0197 125.515 25.1268C125.898 24.234 125.899 23.086 125.899 21.938C125.899 20.79 125.898 19.6421 125.515 18.7492C125.132 17.8563 124.495 17.2186 123.602 16.8359C122.709 16.4532 121.559 16.4522 120.283 16.4522C119.008 16.4522 117.606 16.4522 116.203 16.4522ZM215.31 16.4522V27.4238H219.391C220.666 27.4238 221.816 27.4228 222.709 27.0401C223.602 26.6575 224.24 26.0197 224.622 25.1268C225.005 24.234 225.006 23.086 225.006 21.938C225.006 20.79 225.005 19.6421 224.622 18.7492C224.24 17.8563 223.602 17.2186 222.709 16.8359C221.816 16.4532 220.666 16.4522 219.391 16.4522C218.243 16.4522 216.713 16.4522 215.31 16.4522ZM190.437 16.4522V22.4487H194.518C195.921 22.4487 196.69 22.4472 197.328 22.1921C197.966 21.937 198.473 21.4278 198.728 20.6625C198.983 19.8972 198.983 18.8767 198.728 18.1114C198.473 17.3461 198.094 16.8369 197.328 16.5818C196.563 16.3267 195.796 16.3252 194.648 16.3252C193.5 16.3252 191.968 16.4522 190.437 16.4522Z" fill="white"/>
<path fill-rule="evenodd" clip-rule="evenodd" d="M7.14495 5.98883e-08H22.4513H37.7576C41.2015 5.98883e-08 42.0944 -0.000996453 42.8597 0.254109C43.625 0.509215 44.1342 1.14598 44.3893 1.78375C44.6445 2.42151 44.6435 3.18832 44.6435 3.95364V11.8609H27.937L22.3217 17.4737L16.7114 11.8609H0V3.95364C0 3.18832 0.00398602 2.42151 0.259091 1.78375C0.514197 1.14598 1.15096 0.509215 1.78873 0.254109C2.80915 -0.000996453 3.82858 5.98883e-08 7.14495 5.98883e-08ZM27.6829 31.8882H17.3492V19.8977H9.44189V31.8882H0.129546C0.129546 35.5872 0.131539 39.1572 1.53462 42.4736C2.9377 45.7899 5.86743 48.5961 9.56645 50.1267C13.2655 51.6574 17.8574 51.5293 22.3217 51.5293C26.7861 51.5293 31.378 51.5298 35.077 50.1267C38.776 48.7237 41.7107 45.7899 43.1138 42.4736C44.5169 39.1572 44.5189 35.5872 44.5189 31.8882H35.2065V19.8977H27.2993V31.8882H27.6829Z" fill="white"/>
</svg>
