<svg width="45" height="52" viewBox="0 0 45 52" fill="none" xmlns="http://www.w3.org/2000/svg">
<path fill-rule="evenodd" clip-rule="evenodd" d="M7.14495 5.98883e-08H22.4513H37.7576C41.2015 5.98883e-08 42.0944 -0.000996453 42.8597 0.254109C43.625 0.509215 44.1342 1.14598 44.3893 1.78375C44.6445 2.42151 44.6435 3.18832 44.6435 3.95364V11.8609H27.937L22.3217 17.4737L16.7114 11.8609H0V3.95364C0 3.18832 0.00398602 2.42151 0.259091 1.78375C0.514197 1.14598 1.15096 0.509215 1.78873 0.254109C2.80915 -0.000996453 3.82858 5.98883e-08 7.14495 5.98883e-08ZM27.6829 31.8882H17.3492V19.8977H9.44189V31.8882H0.129546C0.129546 35.5872 0.131539 39.1572 1.53462 42.4736C2.9377 45.7899 5.86743 48.5961 9.56645 50.1267C13.2655 51.6574 17.8574 51.5293 22.3217 51.5293C26.7861 51.5293 31.378 51.5298 35.077 50.1267C38.776 48.7237 41.7107 45.7899 43.1138 42.4736C44.5169 39.1572 44.5189 35.5872 44.5189 31.8882H35.2065V19.8977H27.2993V31.8882H27.6829Z" fill="white"/>
</svg>
